<mxfile host="Electron" agent="Mozilla/5.0 (X11; Linux x86_64) AppleWebKit/537.36 (KHTML, like Gecko) draw.io/26.0.16 Chrome/132.0.6834.196 Electron/34.2.0 Safari/537.36" version="26.0.16">
  <diagram name="Page-1" id="HGsz6QV5NG_qh7q9Tk15">
    <mxGraphModel dx="1674" dy="828" grid="1" gridSize="10" guides="1" tooltips="1" connect="1" arrows="1" fold="1" page="1" pageScale="1" pageWidth="850" pageHeight="1100" math="0" shadow="0">
      <root>
        <mxCell id="0" />
        <mxCell id="1" parent="0" />
        <mxCell id="L4TTPv_r0_JlyZRkD_Dm-3" value="" style="edgeStyle=orthogonalEdgeStyle;rounded=0;orthogonalLoop=1;jettySize=auto;html=1;" edge="1" parent="1" source="L4TTPv_r0_JlyZRkD_Dm-1" target="L4TTPv_r0_JlyZRkD_Dm-2">
          <mxGeometry relative="1" as="geometry" />
        </mxCell>
        <mxCell id="L4TTPv_r0_JlyZRkD_Dm-1" value="print chars newline" style="rounded=1;whiteSpace=wrap;html=1;arcSize=50;" vertex="1" parent="1">
          <mxGeometry x="370" y="40" width="120" height="60" as="geometry" />
        </mxCell>
        <mxCell id="L4TTPv_r0_JlyZRkD_Dm-5" value="" style="edgeStyle=orthogonalEdgeStyle;rounded=0;orthogonalLoop=1;jettySize=auto;html=1;" edge="1" parent="1" source="L4TTPv_r0_JlyZRkD_Dm-2" target="L4TTPv_r0_JlyZRkD_Dm-4">
          <mxGeometry relative="1" as="geometry" />
        </mxCell>
        <mxCell id="L4TTPv_r0_JlyZRkD_Dm-2" value="userInput" style="shape=parallelogram;perimeter=parallelogramPerimeter;whiteSpace=wrap;html=1;fixedSize=1;" vertex="1" parent="1">
          <mxGeometry x="370" y="160" width="120" height="60" as="geometry" />
        </mxCell>
        <mxCell id="L4TTPv_r0_JlyZRkD_Dm-7" value="" style="edgeStyle=orthogonalEdgeStyle;rounded=0;orthogonalLoop=1;jettySize=auto;html=1;" edge="1" parent="1" source="L4TTPv_r0_JlyZRkD_Dm-4" target="L4TTPv_r0_JlyZRkD_Dm-6">
          <mxGeometry relative="1" as="geometry" />
        </mxCell>
        <mxCell id="L4TTPv_r0_JlyZRkD_Dm-4" value="i = 0&amp;nbsp;" style="rounded=0;whiteSpace=wrap;html=1;" vertex="1" parent="1">
          <mxGeometry x="370" y="300" width="120" height="60" as="geometry" />
        </mxCell>
        <mxCell id="L4TTPv_r0_JlyZRkD_Dm-10" style="edgeStyle=orthogonalEdgeStyle;rounded=0;orthogonalLoop=1;jettySize=auto;html=1;" edge="1" parent="1" source="L4TTPv_r0_JlyZRkD_Dm-6" target="L4TTPv_r0_JlyZRkD_Dm-9">
          <mxGeometry relative="1" as="geometry">
            <Array as="points">
              <mxPoint x="570" y="470" />
            </Array>
          </mxGeometry>
        </mxCell>
        <mxCell id="L4TTPv_r0_JlyZRkD_Dm-14" style="edgeStyle=orthogonalEdgeStyle;rounded=0;orthogonalLoop=1;jettySize=auto;html=1;entryX=0.5;entryY=0;entryDx=0;entryDy=0;" edge="1" parent="1" source="L4TTPv_r0_JlyZRkD_Dm-6" target="L4TTPv_r0_JlyZRkD_Dm-13">
          <mxGeometry relative="1" as="geometry" />
        </mxCell>
        <mxCell id="L4TTPv_r0_JlyZRkD_Dm-6" value="userInput[i] != 0&amp;nbsp;" style="rhombus;whiteSpace=wrap;html=1;" vertex="1" parent="1">
          <mxGeometry x="322.5" y="430" width="215" height="80" as="geometry" />
        </mxCell>
        <mxCell id="L4TTPv_r0_JlyZRkD_Dm-8" value="True" style="text;html=1;align=center;verticalAlign=middle;whiteSpace=wrap;rounded=0;" vertex="1" parent="1">
          <mxGeometry x="537.5" y="420" width="60" height="30" as="geometry" />
        </mxCell>
        <mxCell id="L4TTPv_r0_JlyZRkD_Dm-12" value="" style="edgeStyle=orthogonalEdgeStyle;rounded=0;orthogonalLoop=1;jettySize=auto;html=1;" edge="1" parent="1" source="L4TTPv_r0_JlyZRkD_Dm-9" target="L4TTPv_r0_JlyZRkD_Dm-11">
          <mxGeometry relative="1" as="geometry" />
        </mxCell>
        <mxCell id="L4TTPv_r0_JlyZRkD_Dm-9" value="userInput[i]" style="shape=parallelogram;perimeter=parallelogramPerimeter;whiteSpace=wrap;html=1;fixedSize=1;" vertex="1" parent="1">
          <mxGeometry x="510" y="530" width="120" height="60" as="geometry" />
        </mxCell>
        <mxCell id="L4TTPv_r0_JlyZRkD_Dm-15" style="edgeStyle=orthogonalEdgeStyle;rounded=0;orthogonalLoop=1;jettySize=auto;html=1;entryX=0.5;entryY=0;entryDx=0;entryDy=0;" edge="1" parent="1" source="L4TTPv_r0_JlyZRkD_Dm-11" target="L4TTPv_r0_JlyZRkD_Dm-6">
          <mxGeometry relative="1" as="geometry">
            <Array as="points">
              <mxPoint x="570" y="790" />
              <mxPoint x="710" y="790" />
              <mxPoint x="710" y="380" />
              <mxPoint x="430" y="380" />
            </Array>
          </mxGeometry>
        </mxCell>
        <mxCell id="L4TTPv_r0_JlyZRkD_Dm-11" value="i = i + 1" style="rounded=0;whiteSpace=wrap;html=1;" vertex="1" parent="1">
          <mxGeometry x="510" y="680" width="120" height="60" as="geometry" />
        </mxCell>
        <mxCell id="L4TTPv_r0_JlyZRkD_Dm-13" value="end" style="rounded=1;whiteSpace=wrap;html=1;arcSize=50;" vertex="1" parent="1">
          <mxGeometry x="180" y="520" width="120" height="60" as="geometry" />
        </mxCell>
      </root>
    </mxGraphModel>
  </diagram>
</mxfile>
